<svg id="Layer_1" data-name="Layer 1" xmlns="http://www.w3.org/2000/svg" viewBox="0 0 1000 1000"><defs><style>.cls-1,.cls-3{fill:#0f4b37;}.cls-2{fill:#ddb283;}.cls-3{font-size:68.43px;font-family:CenturyGothic-Bold, Century Gothic;font-weight:700;}</style></defs><path class="cls-1" d="M706.43,709.9c-123.37-37.53-254.15-37.52-377.88,1.26C438.07,647.54,597.9,645.33,706.43,709.9Z"/><path class="cls-1" d="M360.19,669.32c89.57-58.84,223.5-57.92,314.75-3.38C587.79,643.88,461.45,631.54,360.19,669.32Z"/><path class="cls-1" d="M602.55,610.44c17.91-24,32.42-49.79,39.62-79.11,3.71-15.09,5-30.31,1.67-45.76-1.2-5.62-3-6.92-8.7-4.7-13.36,5.16-25,13.27-37.54,20,13.63-20.07,28.72-38.43,52.36-47.65,5.46-2.13,5.52,2.26,6.53,4.69,12.66,30.33,13.86,60.67-.6,90.83-11.4,23.79-28.15,43.32-48.29,60.11C606.17,610.07,604.93,611.64,602.55,610.44Z"/><path class="cls-1" d="M433.14,610.11c-8.69-6-15.56-13.21-22.22-20.58-17.44-19.32-31.59-40.57-36.58-66.7-4.39-23-.63-45.05,8.63-66.36,1.47-3.4,2.83-4.61,6.76-2.88,17.24,7.62,31.37,18.82,41.85,34.59,3,4.5,8,7.53,10.29,13.82-12.76-7.78-24.43-15.64-37.63-20.91-6.49-2.59-8.55-.9-9.51,5.25a116,116,0,0,0,4.15,54.42c7.52,23.34,19.35,44.31,33.36,64.21C433,606.07,434.11,607.13,433.14,610.11Z"/><path class="cls-1" d="M645.17,617.57c27.37-16.43,51.72-35.42,66.14-64.64A78.75,78.75,0,0,0,717.23,535c.87-3.9.24-5.84-4.62-5.95-11.75-.28-23.15,2-34.89,3.29,10.88-7.2,22-14,35-16.84a85.49,85.49,0,0,1,17.1-1.57c4.17-.07,5.53.53,5.46,5-.42,27.55-9.64,51.12-30.73,69.4C688.58,602.24,670,611.26,650,617.5,648.68,617.91,647.05,619.05,645.17,617.57Z"/><path class="cls-1" d="M391.33,617.59c-45.91-12-87.75-43.65-87.81-97.65,0-5.54,1.46-7.15,7.09-6.89,19.1.88,35.12,9.23,50.57,19.37-11.57-1.3-22.91-3.62-34.6-3.36-5.14.12-5.83,2-5,6.27,3.37,17,12.32,31.09,23.46,43.94,12.14,14,26.86,24.88,42.44,34.7C388.81,614.79,390.64,615.08,391.33,617.59Z"/><path class="cls-1" d="M548.89,359.8a36,36,0,0,0-4-42.88c-9.92-11.2-28.27-14.61-42.41-7.81-9.32,4.49-15.43,11.83-18.58,21.63s-1.28,19.21,2.86,29.35c-11.8-7.66-16.13-28.61-10.21-44.59,7.26-19.62,27.72-32.24,48.42-28.48,19.83,3.59,35.2,17.18,37.87,40.54C564.3,340.57,557.51,357,548.89,359.8Z"/><path class="cls-1" d="M541.73,528.37c0,12.5-10.82,23.32-23.29,23.34s-23.31-11-23.29-23.34a23.29,23.29,0,0,1,46.58,0Z"/><path class="cls-1" d="M378.55,412.49c8.77-.07,16.65,7.55,16.92,16.38s-7.64,17.25-16.65,17.45-17.14-7.66-17.3-16.8C361.37,420.6,369.4,412.57,378.55,412.49Z"/><path class="cls-1" d="M660.09,446.37c-9-.17-16.94-8.36-16.81-17.23s8.16-16.77,17.27-16.71,16.91,8.18,16.7,17.18C677,438.79,669.09,446.54,660.09,446.37Z"/><path class="cls-1" d="M759.84,501.76a12.89,12.89,0,0,1-13.2,12.55,12.63,12.63,0,1,1,.9-25.24A12.85,12.85,0,0,1,759.84,501.76Z"/><path class="cls-1" d="M291.86,489a12.63,12.63,0,0,1-.21,25.25,12.93,12.93,0,0,1-12.6-13.13A12.71,12.71,0,0,1,291.86,489Z"/><path class="cls-1" d="M466.72,618.6c-.55.5-1.11.65-1.6,0a8.33,8.33,0,0,1,.84-.78A5.32,5.32,0,0,1,466.72,618.6Z"/><path class="cls-1" d="M572.91,617.72c.28.29.87.77.81.86-.44.74-1.05.55-1.64.12A4.85,4.85,0,0,1,572.91,617.72Z"/><path class="cls-2" d="M513.07,393.44c-24.48,29.36,9,64.1-34.32,125.32,3.32-26.51,17.71-65.39-.34-91.77-17.51-21.41,38.32-31.72,15.09-41.57C471.08,380.2,522.11,365.88,513.07,393.44Z"/><path class="cls-2" d="M473.88,404.66c-12.74-2.23-16.12.19-25.34,9.91C438.44,426,403.31,435.86,420.92,454c6.06,21.58-29-3.38-6.62-17.65,8.65-9.95,42.14-27.76,42-38.2-4.6-6.56-5.33-13.49-.28-20.12,10-13.94,20.84-.29,25.49-5.12,2.57-3.15,8.94-5.13,7.51.9C474.53,381.39,496.11,394.77,473.88,404.66Z"/><path class="cls-2" d="M523.85,392c24.48,29.35-9,64.1,34.31,125.32-3.32-26.52-17.7-65.39.35-91.78,17.69-21.13-38.06-31.48-15.1-41.57C565.75,378.45,514.51,364.87,523.85,392Z"/><path class="cls-2" d="M563,403.25c12.75-2.23,16.13.2,25.35,9.91,10.09,11.4,45.22,21.29,27.62,39.43-6.06,21.58,29-3.38,6.61-17.66-9.61-10.89-40.62-26.3-42-38.2,11-13.28-4.45-32.31-19.88-25.24-3.38,6.53-13.23-10.83-12.83.91C562,380,541.38,394.22,563,403.25Z"/><path class="cls-2" d="M530.2,555.71a54,54,0,0,0-11.76,33.72,54,54,0,0,0-11.76-33.72s4.33,2.17,11.76,2.14S530.2,555.71,530.2,555.71Z"/><text class="cls-3" transform="matrix(0.41, -0.91, 0.91, 0.41, 265.41, 452.78)">M</text><text class="cls-3" transform="translate(295.32 391.06) rotate(-52.71)">a</text><text class="cls-3" transform="translate(328.3 349.85) rotate(-43.11)">s</text><text class="cls-3" transform="translate(356.75 324.31) rotate(-36.01)">t</text><text class="cls-3" transform="translate(379.59 307.36) rotate(-27.47)">e</text><text class="cls-3" transform="translate(426 284.83) rotate(-18.75)">r</text><text class="cls-3" transform="matrix(0.98, -0.22, 0.22, 0.98, 454.74, 275.63)"> </text><text class="cls-3" transform="translate(480.8 268.84) rotate(-2.77)">G</text><text class="cls-3" transform="translate(545.4 267.18) rotate(9.43)">o</text><text class="cls-3" transform="translate(596.1 277.16) rotate(17.59)">l</text><text class="cls-3" transform="translate(619.65 284.99) rotate(23.22)">f</text><text class="cls-3" transform="matrix(0.87, 0.49, -0.49, 0.87, 644.77, 296.24)"> </text><text class="cls-3" transform="translate(668.68 308.69) rotate(38.47)">C</text><text class="cls-3" transform="matrix(0.68, 0.74, -0.74, 0.68, 715.18, 348.28)">l</text><text class="cls-3" transform="translate(731.89 366.1) rotate(55.31)">u</text><text class="cls-3" transform="translate(759.1 406.3) rotate(66.11)">b</text></svg>